<?xml version="1.0" encoding="UTF-8"?>
<svg version="1.1" xmlns="http://www.w3.org/2000/svg" width="487" height="512">
<path d="M0 0 C1.83349609 0.22119141 1.83349609 0.22119141 4 1 C5.39697266 2.92333984 5.39697266 2.92333984 6.6640625 5.4609375 C7.14101562 6.39752197 7.61796875 7.33410645 8.109375 8.29907227 C8.60953125 9.31412842 9.1096875 10.32918457 9.625 11.375 C10.70014642 13.49628356 11.77567243 15.61737476 12.8515625 17.73828125 C13.38426758 18.79998535 13.91697266 19.86168945 14.46582031 20.95556641 C16.59629363 25.18328796 18.7901483 29.37586338 21 33.5625 C21.39622559 34.316521 21.79245117 35.07054199 22.20068359 35.84741211 C25.99352613 43.0425906 29.90950269 50.16951292 33.8203125 57.30102539 C36.29676139 61.83008792 38.73115824 66.36222051 41 71 C43.70666612 76.53204566 46.66115426 81.91555566 49.625 87.3125 C54.01478192 95.31446902 58.3316902 103.35025954 62.5625 111.4375 C63.06281738 112.38987549 63.56313477 113.34225098 64.07861328 114.32348633 C74.48413622 134.29146739 77.92041388 153.97514573 71.375 175.8125 C67.22697845 187.61369784 60.77671611 197.18265094 52 206 C57.44060717 217.16441774 57.44060717 217.16441774 63.5 228 C66.50011958 233.03398443 69.14412826 238.17452233 71.72949219 243.42773438 C75.08441935 250.22748149 78.60658034 256.935839 82.14355469 263.64233398 C84.8249809 268.73225901 87.4462412 273.84474859 90 279 C86.98869952 282.01130048 75.94679869 280.46139571 71.68212891 280.51489258 C69.73420674 280.54651996 67.78647675 280.59426184 65.83935547 280.65844727 C63.0327916 280.74974283 60.22969984 280.78850886 57.421875 280.81640625 C56.55399353 280.85455948 55.68611206 280.89271271 54.79193115 280.93202209 C52.2905225 280.92399231 50.36430314 280.82455235 48 280 C45.71539678 277.60550776 44.38277139 274.98470435 43 272 C42.54117432 271.21786133 42.08234863 270.43572266 41.60961914 269.62988281 C41.25504639 268.99405273 40.90047363 268.35822266 40.53515625 267.703125 C40.13087402 266.97843018 39.7265918 266.25373535 39.31005859 265.50708008 C38.89836426 264.76224365 38.48666992 264.01740723 38.0625 263.25 C37.62502441 262.46069092 37.18754883 261.67138184 36.73681641 260.8581543 C33.86307474 255.6431803 31.12761761 250.3789263 28.515625 245.02734375 C26.29615558 240.5941252 23.92587314 236.24258912 21.53857422 231.89770508 C19 227.21678256 19 227.21678256 19 225 C17.79472656 225.16371094 16.58945312 225.32742188 15.34765625 225.49609375 C9.04861376 226.19598736 2.76744583 226.10803918 -3.5625 226.0625 C-4.76197266 226.05798828 -5.96144531 226.05347656 -7.19726562 226.04882812 C-10.13156359 226.03713769 -13.06575449 226.02075138 -16 226 C-17.22159433 228.43721184 -18.43039687 230.87937203 -19.62890625 233.328125 C-23.40761882 241.01203424 -27.36819734 248.53799511 -31.62744141 255.96630859 C-34.78868662 261.5200697 -37.6626118 267.19349361 -40.4375 272.94921875 C-41.75943904 275.66500147 -42.84745305 277.84745305 -45 280 C-48.08524939 280.17553419 -51.07964202 280.23122797 -54.1640625 280.1953125 C-55.52487442 280.19106766 -55.52487442 280.19106766 -56.91317749 280.18673706 C-59.81725123 280.17552153 -62.72101912 280.15041463 -65.625 280.125 C-67.59114139 280.11497197 -69.5572876 280.10584581 -71.5234375 280.09765625 C-76.34907659 280.07557772 -81.1744864 280.04103865 -86 280 C-85.3973931 276.13374378 -84.23484677 273.16378964 -82.41015625 269.7109375 C-81.8780957 268.69644531 -81.34603516 267.68195313 -80.79785156 266.63671875 C-80.22518555 265.56035156 -79.65251953 264.48398437 -79.0625 263.375 C-78.18223145 261.70244141 -78.18223145 261.70244141 -77.28417969 259.99609375 C-76.09010602 257.72871733 -74.89334145 255.46275591 -73.69384766 253.19824219 C-72.1999326 250.37750318 -70.71286934 247.55336407 -69.23046875 244.7265625 C-67.20983283 240.87413879 -65.18172933 237.02573072 -63.14990234 233.17919922 C-62.02047849 231.03880913 -60.89465862 228.89655737 -59.76953125 226.75390625 C-55.18443584 218.03817633 -50.49334563 209.38626907 -45.71704102 200.77368164 C-45.27674561 199.97824951 -44.8364502 199.18281738 -44.3828125 198.36328125 C-43.80104248 197.31587769 -43.80104248 197.31587769 -43.20751953 196.24731445 C-41.74575689 193.52682818 -40.37085373 190.76722209 -39 188 C-38.13461861 187.99453156 -38.13461861 187.99453156 -37.25175476 187.98895264 C-31.19958462 187.94685834 -25.14815396 187.87732786 -19.09643555 187.79248047 C-16.84358142 187.76440651 -14.59063127 187.74312508 -12.33764648 187.72900391 C-9.08267537 187.70738577 -5.82884236 187.66063899 -2.57421875 187.609375 C-1.58105148 187.60814636 -0.58788422 187.60691772 0.43537903 187.60565186 C10.33892616 187.40226566 19.03365183 184.88381112 26.28515625 177.9140625 C33.46399586 169.90123469 36.63395384 160.85902242 36.359375 150.13671875 C35.54389059 143.01895812 33.36649881 136.66525231 29 131 C28.11055029 129.30976845 27.26009172 127.59875936 26.4375 125.875 C23.81355978 120.52268412 20.9843486 115.32006764 18.0625 110.125 C14.46779083 103.71761893 11.07533267 97.26481558 7.83203125 90.671875 C4.47105937 83.87877974 0.8695809 77.20653307 -2.67529297 70.50830078 C-4.02940455 67.9443232 -5.37697621 65.37700564 -6.72265625 62.80859375 C-7.16697998 61.96127686 -7.61130371 61.11395996 -8.0690918 60.2409668 C-8.91386297 58.62960013 -9.75783015 57.0178116 -10.60083008 55.40551758 C-10.98779053 54.66841553 -11.37475098 53.93131348 -11.7734375 53.171875 C-12.14307617 52.46482422 -12.51271484 51.75777344 -12.89355469 51.02929688 C-13.95729887 49.0783168 -15.11339232 47.21291319 -16.2890625 45.328125 C-18.15722667 41.69416182 -18.56754432 40.00925805 -18 36 C-17.15782149 33.51083075 -16.27607986 31.24942524 -15.1875 28.875 C-14.73685181 27.86566406 -14.73685181 27.86566406 -14.27709961 26.8359375 C-10.0538058 17.61920142 -5.00407701 8.80913312 0 0 Z " fill="#080808" transform="translate(243,105)"/>
<path d="M0 0 C2.44893771 0.36306739 3.66005524 0.56402256 5.21337891 2.55615234 C5.54772949 3.22598145 5.88208008 3.89581055 6.2265625 4.5859375 C6.61336182 5.34213379 7.00016113 6.09833008 7.39868164 6.87744141 C7.8033667 7.70163574 8.20805176 8.52583008 8.625 9.375 C9.51135965 11.11997412 10.39808868 12.86476065 11.28515625 14.609375 C11.7352002 15.50591797 12.18524414 16.40246094 12.64892578 17.32617188 C14.73445237 21.45350964 16.89915791 25.53807637 19.0625 29.625 C19.90007246 31.21466841 20.73731441 32.804511 21.57421875 34.39453125 C21.98075684 35.16619629 22.38729492 35.93786133 22.80615234 36.73291016 C23.57789132 38.19842512 24.34908781 39.66422595 25.11962891 41.13037109 C29.21771983 48.92723289 33.36711476 56.69203343 37.60083008 64.41625977 C40.07814833 68.93825183 42.54060787 73.46824061 45 78 C45.36351562 78.66531738 45.72703125 79.33063477 46.1015625 80.01611328 C53.0883311 92.87844186 53.0883311 92.87844186 51.46875 100.5 C49.48185171 106.68146135 46.65372676 109.64795017 41.12109375 112.94140625 C36.86049721 115.06778132 33.13882172 115.13163762 28.48828125 115.09765625 C27.76005661 115.0962413 27.03183197 115.09482635 26.28153992 115.09336853 C23.95848461 115.08777659 21.63552612 115.07522562 19.3125 115.0625 C17.73632952 115.05748396 16.16015752 115.05292123 14.58398438 115.04882812 C10.72261902 115.0378098 6.86132592 115.02055074 3 115 C2 112 2 112 3.6875 108.6015625 C4.83487184 106.59566768 6.00981552 104.60857665 7.1953125 102.625 C9.43960468 98.74651316 9.43960468 98.74651316 9.94140625 94.37890625 C8.81678364 91.53701759 7.46537439 88.96009321 5.9375 86.3125 C3 81.20470588 3 81.20470588 3 79 C2.34 79 1.68 79 1 79 C0.78601563 79.77472656 0.57203125 80.54945313 0.3515625 81.34765625 C-1.49130854 86.32766902 -4.0432581 90.80655504 -6.625 95.4375 C-7.71403163 97.41249032 -8.80257205 99.38775159 -9.890625 101.36328125 C-10.68823242 102.80695068 -10.68823242 102.80695068 -11.50195312 104.27978516 C-13.48533019 107.88128242 -15.44008259 111.49727099 -17.375 115.125 C-17.6956543 115.72586426 -18.01630859 116.32672852 -18.34667969 116.94580078 C-20.2530113 120.53834943 -22.08222253 124.16220588 -23.875 127.8125 C-26.38172635 132.88725852 -29.1029238 137.81752639 -31.875 142.75 C-35.45077216 149.1130749 -38.81478147 155.53847 -42.02636719 162.09179688 C-44.74772415 167.60028377 -47.73048344 172.9355982 -50.77880859 178.26855469 C-53.57995973 183.18913396 -56.12462957 188.20266756 -58.61328125 193.2890625 C-59.9285983 195.86041471 -61.35436018 198.29577701 -62.875 200.75 C-66.05712249 205.89358952 -68.68299166 211.27762457 -71.28466797 216.73144531 C-73.78888322 221.89444161 -73.78888322 221.89444161 -76 223 C-78.98970289 223.08705146 -81.95584955 223.11550145 -84.9453125 223.09765625 C-85.8303244 223.0962413 -86.7153363 223.09482635 -87.62716675 223.09336853 C-90.45981191 223.0877614 -93.29237864 223.07520771 -96.125 223.0625 C-98.04296761 223.05748592 -99.96093646 223.05292285 -101.87890625 223.04882812 C-106.58596782 223.03778966 -111.2929706 223.02052025 -116 223 C-116 219.08581391 -115.9262836 218.40625526 -114.0625 215.3125 C-111.47931951 210.86328261 -109.02930051 206.36002798 -106.625 201.8125 C-106.0371875 200.70310059 -106.0371875 200.70310059 -105.4375 199.57128906 C-103.07823706 195.09997969 -100.7939976 190.59935092 -98.5625 186.0625 C-95.47193783 179.81683956 -92.10811602 173.75008228 -88.69384766 167.67651367 C-85.53174551 162.0264662 -82.62625025 156.29714839 -79.7734375 150.484375 C-77.81169804 146.63003226 -75.70775212 142.87907784 -73.5625 139.125 C-70.59513626 133.92353275 -67.77329329 128.68361005 -65.125 123.3125 C-61.95115974 116.87605201 -58.69397003 110.48795254 -55.375 104.125 C-54.93172363 103.26946533 -54.48844727 102.41393066 -54.03173828 101.5324707 C-51.30959745 96.32920669 -48.39627278 91.28704163 -45.34814453 86.26855469 C-43.66358884 83.43391298 -42.18643535 80.52987302 -40.75 77.5625 C-37.94596367 71.84617888 -35.03366293 66.19373292 -32.0625 60.5625 C-31.63646484 59.75490234 -31.21042969 58.94730469 -30.77148438 58.11523438 C-27.79123863 52.47680902 -24.7829376 46.85364022 -21.76904297 41.2331543 C-19.18751532 36.39890967 -16.73072945 31.50928603 -14.32421875 26.5859375 C-12.98865958 23.9778544 -11.53049725 21.49814161 -10 19 C-4.44727225 9.77792139 -4.44727225 9.77792139 0 0 Z " fill="#080808" transform="translate(212,162)"/>
<path d="M0 0 C2.33945784 2.15021534 3.80953111 4.2120665 5.26953125 7.02734375 C5.68017822 7.81318848 6.0908252 8.5990332 6.51391602 9.40869141 C6.94244873 10.24319824 7.37098145 11.07770508 7.8125 11.9375 C8.25972412 12.79778809 8.70694824 13.65807617 9.16772461 14.54443359 C11.98634064 19.98153932 14.7365026 25.45071953 17.45703125 30.9375 C22.43540184 40.81862036 27.71690579 50.53621096 33.125 60.1875 C36.64545625 66.47546321 39.96377432 72.81396275 43.14453125 79.28125 C45.41620213 83.87284414 47.80208103 88.4042449 50.1875 92.9375 C50.81205078 94.1275061 50.81205078 94.1275061 51.44921875 95.34155273 C52.0525 96.48539429 52.0525 96.48539429 52.66796875 97.65234375 C53.0551709 98.3882373 53.44237305 99.12413086 53.84130859 99.88232422 C54.94976078 101.90818057 56.14662794 103.85441578 57.36328125 105.81640625 C59 109 59 109 58.60229492 111.19897461 C58.30415894 112.09048218 58.30415894 112.09048218 58 113 C52.96469037 113.1238722 47.93027303 113.21446514 42.89379883 113.2746582 C41.18172755 113.29975714 39.46976296 113.33384429 37.75805664 113.37719727 C35.29286355 113.43805739 32.82909015 113.46625432 30.36328125 113.48828125 C29.22080681 113.52699089 29.22080681 113.52699089 28.05525208 113.56648254 C24.03621533 113.56858953 22.25257188 113.20467689 19.09033203 110.64208984 C16.96603768 107.95707309 15.22757901 105.30325343 13.5625 102.3125 C12.96695312 101.25804687 12.37140625 100.20359375 11.7578125 99.1171875 C11.17773438 98.08851563 10.59765625 97.05984375 10 96 C8.98528746 94.30881243 7.96484 92.6210467 6.9375 90.9375 C4.32175951 86.60106019 1.90358614 82.17539931 -0.5 77.71875 C-1.94172621 75.10562124 -3.45041548 72.55035785 -5 70 C-7.6670145 65.60152059 -10.18313512 61.13944345 -12.60546875 56.6015625 C-13.47625947 54.97706216 -14.37101959 53.36492143 -15.30078125 51.7734375 C-15.67589844 51.10570312 -16.05101562 50.43796875 -16.4375 49.75 C-16.76621094 49.18796875 -17.09492188 48.6259375 -17.43359375 48.046875 C-19.34284041 41.1472526 -15.15076836 34.52034467 -12.25 28.5 C-8.57186372 20.68134809 -5.41621142 12.97764696 -2.9375 4.703125 C-2 2 -2 2 0 0 Z " fill="#080808" transform="translate(334,272)"/>
<path d="M0 0 C2.65877857 2.65877857 2.26145662 4.66302424 2.2734375 8.28125 C2.26570313 9.0959375 2.25796875 9.910625 2.25 10.75 C2.25773437 11.54921875 2.26546875 12.3484375 2.2734375 13.171875 C2.25807778 17.84122976 1.78427892 21.61010742 0 26 C-0.66 26 -1.32 26 -2 26 C-2.04125 27.0725 -2.0825 28.145 -2.125 29.25 C-3 33 -3 33 -6.0625 35.4375 C-7.031875 35.953125 -8.00125 36.46875 -9 37 C-9.66 36.67 -10.32 36.34 -11 36 C-10.31164062 35.21689453 -10.31164062 35.21689453 -9.609375 34.41796875 C-0.51120227 23.50398423 0.61787516 13.6790696 0 0 Z " fill="#464647" transform="translate(279,248)"/>
<path d="M0 0 C3.11635081 4.15513441 4.28661836 6.91035284 4 12 C2.46945514 18.03161465 0.47934695 22.65151019 -5 26 C-5.66 25.67 -6.32 25.34 -7 25 C-6.67 24.34 -6.34 23.68 -6 23 C-5.01 23 -4.02 23 -3 23 C-3 22.01 -3 21.02 -3 20 C-2.34 20 -1.68 20 -1 20 C-1.33 19.01 -1.66 18.02 -2 17 C-1.01 17 -0.02 17 1 17 C0.67 11.39 0.34 5.78 0 0 Z " fill="#575759" transform="translate(260,248)"/>
<path d="M0 0 C1.98 0.99 1.98 0.99 4 2 C3.67 2.66 3.34 3.32 3 4 C16.2 4 29.4 4 43 4 C43 4.33 43 4.66 43 5 C37.19760386 5.04934656 31.39532919 5.08569402 25.59277344 5.10986328 C23.61781691 5.11993627 21.64287534 5.13359521 19.66796875 5.15087891 C16.83329582 5.17507039 13.99881962 5.18646991 11.1640625 5.1953125 C10.27756012 5.20563507 9.39105774 5.21595764 8.47769165 5.22659302 C6.31714048 5.2269907 4.15706282 5.12272534 2 5 C1.34 4.34 0.68 3.68 0 3 C0 2.01 0 1.02 0 0 Z " fill="#49474A" transform="translate(289,380)"/>
<path d="M0 0 C0.50991593 2.03966372 1.01844869 4.07840692 1.5 6.125 C1.95138724 8.07081859 1.95138724 8.07081859 3 10 C2.34 10 1.68 10 1 10 C1.33 11.98 1.66 13.96 2 16 C2.66 16 3.32 16 4 16 C4.33 17.65 4.66 19.3 5 21 C5.66 21 6.32 21 7 21 C6.67 22.32 6.34 23.64 6 25 C4.65010869 22.80040031 3.3204828 20.592162 2 18.375 C1.6184375 17.75753906 1.236875 17.14007813 0.84375 16.50390625 C-1.50842073 12.51361661 -2.54697013 9.75864015 -2 5 C-1 2.125 -1 2.125 0 0 Z " fill="#484647" transform="translate(227,136)"/>
<path d="M0 0 C0.66 0.66 1.32 1.32 2 2 C1.67 3.32 1.34 4.64 1 6 C-10.88 6 -22.76 6 -35 6 C-35 5.67 -35 5.34 -35 5 C-24.11 5 -13.22 5 -2 5 C-1.34 3.35 -0.68 1.7 0 0 Z " fill="#3E3A3D" transform="translate(391,379)"/>
<path d="M0 0 C3.0916909 2.52956528 3.90931332 5.22454612 5 9 C4.34 9 3.68 9 3 9 C2.67 8.34 2.34 7.68 2 7 C-0.97 9.475 -0.97 9.475 -4 12 C-3.5317879 7.22423661 -2.75668002 3.95523655 0 0 Z " fill="#494449" transform="translate(334,272)"/>
<path d="M0 0 C1.8125 0.1875 1.8125 0.1875 4 1 C7 5.17857143 7 5.17857143 7 8 C6.34 8 5.68 8 5 8 C5 7.34 5 6.68 5 6 C3.68 5.67 2.36 5.34 1 5 C-0.32 7.31 -1.64 9.62 -3 12 C-3.66 12 -4.32 12 -5 12 C-3.41037341 7.96479403 -1.71767682 3.98188718 0 0 Z " fill="#545454" transform="translate(212,162)"/>
<path d="M0 0 C1.76171875 0.06640625 1.76171875 0.06640625 4 1 C5.47069918 3.3220021 6.65544302 5.46927486 7.8125 7.9375 C8.13669922 8.58396484 8.46089844 9.23042969 8.79492188 9.89648438 C9.60353947 11.56393351 10.30995213 13.28009216 11 15 C10.67 15.66 10.34 16.32 10 17 C7.47740939 15.02579865 7.0070192 14.03254358 6.3125 10.8125 C6.209375 9.884375 6.10625 8.95625 6 8 C4.68 7.67 3.36 7.34 2 7 C1.7834375 5.824375 1.7834375 5.824375 1.5625 4.625 C1.12201075 2.03578982 1.12201075 2.03578982 0 0 Z " fill="#313036" transform="translate(291,310)"/>
<path d="M0 0 C1.18595185 3.69500644 0.62578543 5.64770114 -1.0390625 9.18359375 C-2.51671873 11.97672444 -4.0905465 14.47459375 -6 17 C-6.66 17 -7.32 17 -8 17 C-6.3341708 10.83643195 -3.12194714 5.51740344 0 0 Z " fill="#545356" transform="translate(189,321)"/>
<path d="M0 0 C1 4 1 4 0 6 C-0.66 6 -1.32 6 -2 6 C-2.185625 7.918125 -2.185625 7.918125 -2.375 9.875 C-2.75 13.75 -2.75 13.75 -5 16 C-5.99 15.67 -6.98 15.34 -8 15 C-5.36 10.05 -2.72 5.1 0 0 Z " fill="#504B4C" transform="translate(182,219)"/>
<path d="M0 0 C1.31538327 4.15771494 0.34433068 6.8879297 -1 11 C-1.66 11 -2.32 11 -3 11 C-3 11.66 -3 12.32 -3 13 C-4.98 13.99 -4.98 13.99 -7 15 C-5.45454854 9.52067211 -2.84456788 4.88570819 0 0 Z " fill="#4A494A" transform="translate(141,296)"/>
<path d="M0 0 C0.99 0 1.98 0 3 0 C1.59441952 6.46567022 -1.45371104 11.45752952 -5 17 C-6 15 -6 15 -5.0625 11.875 C-4.711875 10.92625 -4.36125 9.9775 -4 9 C-3.34 9 -2.68 9 -2 9 C-1.67 7.02 -1.34 5.04 -1 3 C-0.34 3 0.32 3 1 3 C0.67 2.01 0.34 1.02 0 0 Z " fill="#525253" transform="translate(180,297)"/>
<path d="M0 0 C0.625 1.8125 0.625 1.8125 1 4 C0.01 5.485 0.01 5.485 -1 7 C-0.34 7 0.32 7 1 7 C1 7.66 1 8.32 1 9 C-0.65 9.66 -2.3 10.32 -4 11 C-4 11.66 -4 12.32 -4 13 C-4.66 13 -5.32 13 -6 13 C-4.58707905 8.1725201 -2.57025846 4.2837641 0 0 Z " fill="#525152" transform="translate(158,264)"/>
<path d="M0 0 C0.33 1.32 0.66 2.64 1 4 C0.34 4 -0.32 4 -1 4 C-0.95875 4.9075 -0.9175 5.815 -0.875 6.75 C-0.99531556 9.8782046 -1.3914708 11.38614006 -3 14 C-4.32 14 -5.64 14 -7 14 C-5.23570801 9.02790438 -2.6060834 4.56561939 0 0 Z " fill="#535353" transform="translate(205,176)"/>
<path d="M0 0 C1.875 0.125 1.875 0.125 4 1 C5.25 4.0625 5.25 4.0625 6 7 C5.01 6.67 4.02 6.34 3 6 C3 5.01 3 4.02 3 3 C2.01 3.33 1.02 3.66 0 4 C-1.21869929 6.50447516 -1.21869929 6.50447516 -2 9 C-2.66 9 -3.32 9 -4 9 C-2.94124926 5.59687262 -1.99097846 2.98646769 0 0 Z " fill="#3F3D40" transform="translate(243,105)"/>
<path d="M0 0 C0.33 0 0.66 0 1 0 C1.25 2.75 1.25 2.75 1 6 C-0.875 8.0625 -0.875 8.0625 -3 10 C-4.25436187 12.63222962 -4.25436187 12.63222962 -5 15 C-5.66 15 -6.32 15 -7 15 C-5.45454854 9.52067211 -2.84456788 4.88570819 0 0 Z " fill="#5F5E5F" transform="translate(180,338)"/>
<path d="M0 0 C1.43545812 4.84979779 -0.14763854 7.36939547 -2.4375 11.75 C-4 14 -4 14 -7 15 C-5.63408831 11.45756548 -4.09068516 8.07372071 -2.375 4.6875 C-1.70597656 3.36298828 -1.70597656 3.36298828 -1.0234375 2.01171875 C-0.68570313 1.34785156 -0.34796875 0.68398438 0 0 Z " fill="#595459" transform="translate(124,328)"/>
<path d="M0 0 C1.28067023 4.21321944 0.67208505 6.89579124 -1 11 C-3.625 12.4375 -3.625 12.4375 -6 13 C-4.31326082 8.50202887 -2.18326108 4.27113698 0 0 Z " fill="#424143" transform="translate(222,259)"/>
<path d="M0 0 C0.99 0.33 1.98 0.66 3 1 C3.70211894 2.65204456 4.36971413 4.31923769 5 6 C5.66 6.33 6.32 6.66 7 7 C7 8.98 7 10.96 7 13 C4.21287908 11.60643954 3.73536671 9.83494327 2.375 7.0625 C1.92898437 6.16660156 1.48296875 5.27070313 1.0234375 4.34765625 C0 2 0 2 0 0 Z " fill="#616161" transform="translate(251,194)"/>
<path d="M0 0 C2.32472205 2.85306797 3.7508258 5.54074837 5 9 C4.01 9.33 3.02 9.66 2 10 C0.4375 8.375 0.4375 8.375 -1 6 C-0.6875 2.75 -0.6875 2.75 0 0 Z " fill="#312E31" transform="translate(386,370)"/>
<path d="M0 0 C1.10272046 3.30816138 1.21537818 5.70111637 0 9 C-2.5625 10.3125 -2.5625 10.3125 -5 11 C-3.55049545 7.2089881 -1.84827434 3.6125362 0 0 Z " fill="#505052" transform="translate(195,310)"/>
<path d="M0 0 C0.66 0 1.32 0 2 0 C2.33 0.99 2.66 1.98 3 3 C3.515625 3.45375 4.03125 3.9075 4.5625 4.375 C6 6 6 6 6.1875 8.6875 C6.125625 9.450625 6.06375 10.21375 6 11 C2.80623468 9.40311734 1.42408504 6.16616965 0 3 C0 2.01 0 1.02 0 0 Z " fill="#454546" transform="translate(334,348)"/>
<path d="M0 0 C2.97246802 2.54782974 4.41535288 5.45340883 6 9 C6 9.66 6 10.32 6 11 C3 10 3 10 1.3125 7.75 C-0.06511203 4.8635748 -0.26985151 3.14826764 0 0 Z " fill="#575757" transform="translate(307,336)"/>
<path d="M0 0 C0.33 0 0.66 0 1 0 C0.64766839 5.4611399 0.64766839 5.4611399 0 8 C-2.0625 9.5 -2.0625 9.5 -4 10 C-2.99806563 6.20696275 -2.18975773 3.28463659 0 0 Z " fill="#4E4C4D" transform="translate(234,122)"/>
<path d="M0 0 C1.98 0.99 1.98 0.99 4 2 C3.67 2.66 3.34 3.32 3 4 C6.3 4 9.6 4 13 4 C13 4.33 13 4.66 13 5 C11.20866022 5.05391993 9.41686101 5.09275571 7.625 5.125 C6.62726563 5.14820313 5.62953125 5.17140625 4.6015625 5.1953125 C2 5 2 5 0 3 C0 2.01 0 1.02 0 0 Z " fill="#413D3F" transform="translate(289,380)"/>
<path d="M0 0 C0.98726527 2.66561622 1.0275526 3.90126985 0.25 6.6875 C-1 9 -1 9 -4 10 C-2.99806563 6.20696275 -2.18975773 3.28463659 0 0 Z " fill="#4F4F4F" transform="translate(168,361)"/>
<path d="M0 0 C2.475 0.99 2.475 0.99 5 2 C5 4.31 5 6.62 5 9 C1.9083091 6.47043472 1.09068668 3.77545388 0 0 Z " fill="#595959" transform="translate(275,355)"/>
<path d="M0 0 C2.15377564 2.62198774 3.40072174 4.64404172 4 8 C2.35 8 0.7 8 -1 8 C-0.67 5.36 -0.34 2.72 0 0 Z " fill="#4B4A4C" transform="translate(303,328)"/>
<path d="M0 0 C2.97246802 2.54782974 4.41535288 5.45340883 6 9 C6 9.66 6 10.32 6 11 C5.01 11 4.02 11 3 11 C2.49632243 9.54293274 1.99717444 8.08429904 1.5 6.625 C1.2215625 5.81289062 0.943125 5.00078125 0.65625 4.1640625 C0 2 0 2 0 0 Z " fill="#4B494A" transform="translate(249,112)"/>
<path d="M0 0 C0.33 0 0.66 0 1 0 C1.56638908 4.81430721 -0.17438373 7.20307814 -3 11 C-3.33 10.34 -3.66 9.68 -4 9 C-3.22265625 6.8359375 -3.22265625 6.8359375 -2.0625 4.375 C-1.68222656 3.55773437 -1.30195313 2.74046875 -0.91015625 1.8984375 C-0.60980469 1.27195312 -0.30945313 0.64546875 0 0 Z " fill="#575757" transform="translate(325,294)"/>
<path d="M0 0 C2.475 0.495 2.475 0.495 5 1 C5 2.65 5 4.3 5 6 C4.01 5.67 3.02 5.34 2 5 C0.8125 2.4375 0.8125 2.4375 0 0 Z " fill="#444345" transform="translate(351,378)"/>
<path d="M0 0 C2.91227269 3.28804981 4.49701212 5.59885603 5 10 C3.0625 8.9375 3.0625 8.9375 1 7 C0.25 3.3125 0.25 3.3125 0 0 Z " fill="#5F5E60" transform="translate(297,317)"/>
<path d="M0 0 C1.485 0.99 1.485 0.99 3 2 C2.34 3.98 1.68 5.96 1 8 C0.34 8 -0.32 8 -1 8 C-1.125 2.25 -1.125 2.25 0 0 Z " fill="#242326" transform="translate(160,376)"/>
<path d="M0 0 C0.6875 1.6875 0.6875 1.6875 1 4 C-0.3125 6.75 -0.3125 6.75 -2 9 C-2.66 9 -3.32 9 -4 9 C-2.94124926 5.59687262 -1.99097846 2.98646769 0 0 Z " fill="#575759" transform="translate(200,301)"/>
<path d="M0 0 C0.144375 0.61875 0.28875 1.2375 0.4375 1.875 C0.93152225 4.03258322 0.93152225 4.03258322 2 6 C0.68 6.33 -0.64 6.66 -2 7 C-2 3 -2 3 0 0 Z " fill="#595658" transform="translate(197,191)"/>
<path d="M0 0 C4.42857143 5.14285714 4.42857143 5.14285714 5 9 C4.01 8.67 3.02 8.34 2 8 C2 6.68 2 5.36 2 4 C1.34 4 0.68 4 0 4 C0 2.68 0 1.36 0 0 Z " fill="#3F3F3F" transform="translate(322,365)"/>
<path d="M0 0 C0.66 0 1.32 0 2 0 C1.50168276 3.68754757 0.89932357 5.60490662 -2 8 C-1.125 2.25 -1.125 2.25 0 0 Z " fill="#656565" transform="translate(172,314)"/>
<path d="M0 0 C0.33 0 0.66 0 1 0 C1 1.98 1 3.96 1 6 C0.34 6 -0.32 6 -1 6 C-1 6.66 -1 7.32 -1 8 C-1.66 8 -2.32 8 -3 8 C-1.125 1.125 -1.125 1.125 0 0 Z " fill="#484748" transform="translate(329,285)"/>
</svg>
